{"accessors" : [{"bufferView" : 0, "byteOffset" : 0, "componentType" : 5123, "count" : 23196, "type" : "SCALAR", "max" : [16435], "min" : [0]}, {"bufferView" : 1, "byteOffset" : 0, "componentType" : 5126, "count" : 16436, "type" : "VEC3", "max" : [0.7466819882392883, 3.3356339931488037, 0.43959900736808777], "min" : [-0.7448440194129944, 1.741824984550476, -0.35626500844955444], "name" : "POSITION"}, {"bufferView" : 1, "byteOffset" : 12, "componentType" : 5126, "count" : 16436, "type" : "VEC3", "max" : [0.9999343156814575, 0.367599755525589, 0.9999713897705078], "min" : [-0.9999343156814575, -0.9999929070472717, -1.0000044107437134], "name" : "NORMAL"}], "asset" : {"generator" : "Aspose.3D 23.2", "version" : "2.0"}, "buffers" : [{"uri" : "data:application/octet-stream;base64,", "byteLength" : 603104}], "bufferViews" : [{"buffer" : 0, "byteOffset" : 0, "byteLength" : 46392, "target" : 34963}, {"buffer" : 0, "byteOffset" : 46396, "byteLength" : 556704, "byteStride" : 24, "target" : 34962}], "meshes" : [{"primitives" : [{"attributes" : {"POSITION" : 1, "NORMAL" : 2}, "indices" : 0, "mode" : 4}], "name" : ""}], "nodes" : [{"mesh" : 0, "name" : "Cube"}], "scene" : 0, "scenes" : [{"nodes" : [0]}]}